<svg width="25" height="25" viewBox="0 0 25 25" fill="none" xmlns="http://www.w3.org/2000/svg">
<circle cx="12.5" cy="12.5" r="12.5" fill="white"/>
<path d="M20.3669 9.02902C20.4876 8.83965 20.5566 8.60725 20.5566 8.37484C20.5566 8.31459 20.548 8.24573 20.548 8.19408C20.4618 7.59154 19.9443 7.13534 19.3321 7.13534H19.3234C18.8319 7.13534 18.4007 7.428 18.2023 7.84977C15.8826 7.57433 14.2699 6.50698 13.3817 5.73229C13.4507 5.57735 13.4938 5.4052 13.4938 5.23305C13.4938 4.71659 13.1661 4.24317 12.6746 4.07101C12.4072 3.97633 12.0968 3.97633 11.8381 4.07101C11.3465 4.24317 11.0188 4.71659 11.0188 5.23305C11.0188 5.4052 11.0533 5.57735 11.1309 5.73229C10.2341 6.50698 8.62143 7.58294 6.29303 7.84977C6.09468 7.428 5.67212 7.14395 5.18057 7.13534C5.18057 7.13534 5.18057 7.13534 5.17195 7.13534C4.59416 7.13534 4.08536 7.5399 3.96463 8.108C3.94738 8.18547 3.93876 8.27155 3.93876 8.35763C3.93876 8.59864 4.00775 8.83105 4.13711 9.02902C3.73179 9.6832 3.28336 10.6128 3.09364 11.706C2.68833 14.0559 3.40409 17.4645 9.16472 20.4083C9.73388 20.701 10.3548 20.9851 11.0102 21.2605V21.2691C11.0102 21.9491 11.5621 22.5 12.2434 22.5C12.9246 22.5 13.4766 21.9491 13.4766 21.2691V21.2605C14.0975 21.0023 14.7011 20.7268 15.253 20.4428C18.6508 18.7212 20.686 16.6554 21.2983 14.2969C21.8933 12.0761 21.0482 10.1308 20.3669 9.02902ZM13.0023 17.0514C12.8125 16.862 12.5452 16.7501 12.252 16.7501C11.9588 16.7501 11.7001 16.862 11.5017 17.0514C11.1999 16.905 10.855 16.7157 10.51 16.4574C9.32857 15.5708 8.73353 14.4002 8.73353 12.9627C8.73353 12.6098 8.78528 12.2741 8.88014 11.9556C9.04399 11.9556 9.19921 11.9126 9.33719 11.8437V11.9556V11.8437C9.69939 11.6716 9.94085 11.3014 9.94085 10.8797C9.94085 10.7075 9.89773 10.5526 9.82874 10.4062C10.4583 9.81232 11.3034 9.4508 12.2434 9.4508C13.1747 9.4508 14.0285 9.82093 14.658 10.4149C14.589 10.5612 14.5459 10.7161 14.5459 10.8883C14.5459 11.4736 15.0202 11.9556 15.6066 11.9642C15.7015 12.2827 15.7532 12.6184 15.7532 12.9713C15.7532 14.4088 15.1582 15.5794 13.9767 16.466C13.649 16.7157 13.2955 16.9136 13.0023 17.0514ZM12.252 6.45533C12.2606 6.45533 12.2692 6.45533 12.2779 6.45533C12.4676 7.23002 12.778 7.97889 13.192 8.65889C12.8902 8.59003 12.5711 8.5556 12.252 8.5556C11.9329 8.5556 11.6138 8.59003 11.312 8.65889C11.726 7.97889 12.0364 7.23002 12.2261 6.45533C12.2348 6.45533 12.2434 6.45533 12.252 6.45533ZM9.33719 9.64877C9.32857 9.65738 9.31995 9.66599 9.31995 9.66599C9.31132 9.6746 9.29407 9.6832 9.28545 9.69181C9.22508 9.74346 9.17334 9.7865 9.1216 9.82953C9.04399 9.81232 8.96637 9.80371 8.88014 9.80371C8.76803 9.80371 8.65592 9.82093 8.55244 9.85536C8.06089 9.39054 7.51759 8.98598 6.93118 8.65029C8.80252 8.3318 10.2254 7.5399 11.174 6.82546C10.8032 7.91003 10.1737 8.88269 9.33719 9.64877ZM15.9688 9.86397C15.8653 9.82953 15.7446 9.81232 15.6325 9.81232C15.5463 9.81232 15.4686 9.82093 15.391 9.83814C15.3393 9.7951 15.2875 9.75207 15.2444 9.70903L15.1237 9.60574C14.3131 8.83965 13.6922 7.8842 13.3386 6.84268C14.2958 7.56572 15.736 8.35763 17.6332 8.67611C17.0295 8.99459 16.469 9.39915 15.9688 9.86397ZM9.57866 19.6164C5.40479 17.4817 3.47308 14.8048 3.98188 11.8695C4.14573 10.9399 4.51655 10.1394 4.8615 9.5713C4.95636 9.59713 5.05984 9.60574 5.1547 9.60574H5.16333C5.50827 9.60574 5.82735 9.46801 6.05157 9.227C6.72421 9.54548 7.32787 9.96726 7.87979 10.4837C7.82805 10.6128 7.80218 10.7419 7.80218 10.8883C7.80218 11.1551 7.89704 11.3961 8.06089 11.5855C7.91428 12.0245 7.83667 12.4893 7.83667 12.9713C7.83667 14.6929 8.58693 16.1562 10.0012 17.2063C10.4152 17.5162 10.8291 17.74 11.1827 17.9035C11.2085 18.2995 11.4586 18.6438 11.8036 18.7987V20.1329C11.6311 20.2018 11.4759 20.305 11.3551 20.4342C10.7256 20.1673 10.1306 19.8919 9.57866 19.6164ZM20.4359 14.0817C19.8926 16.1734 18.0126 18.0498 14.8564 19.6509C14.3217 19.9177 13.7525 20.1845 13.1489 20.4342C13.0281 20.305 12.8729 20.2018 12.7004 20.1329V18.7987C13.0454 18.6352 13.2955 18.2995 13.3213 17.9035C13.6749 17.74 14.0888 17.5076 14.5028 17.2063C15.9171 16.1562 16.6673 14.6929 16.6673 12.9713C16.6673 12.4893 16.5897 12.0245 16.4431 11.5855C16.607 11.3961 16.7018 11.1551 16.7018 10.8883C16.7018 10.7506 16.676 10.6128 16.6242 10.4923C17.1761 9.98447 17.7884 9.5713 18.4611 9.26143C18.6853 9.47662 18.9871 9.60574 19.3148 9.60574H19.3234C19.4269 9.60574 19.5304 9.58852 19.6339 9.5627C20.2289 10.544 20.9274 12.2052 20.4359 14.0817Z" fill="url(#paint0_linear)"/>
<defs>
<linearGradient id="paint0_linear" x1="2.99878" y1="13.2481" x2="21.5064" y2="13.2481" gradientUnits="userSpaceOnUse">
<stop stop-color="#0779E4"/>
<stop offset="0.9341" stop-color="#EA2C62"/>
</linearGradient>
</defs>
</svg>
