<svg width="41" height="40" viewBox="0 0 41 40" fill="none" xmlns="http://www.w3.org/2000/svg">
<circle cx="20.5" cy="20" r="20" fill="white"/>
<path fill-rule="evenodd" clip-rule="evenodd" d="M23.6901 5.48832C29.3657 6.68684 33.8527 11.1111 35.1419 16.7524C36.4512 17.123 37.4093 18.3287 37.4093 19.7547C37.4093 21.1287 36.5209 22.2952 35.2872 22.7114C34.2271 28.6918 29.604 33.4427 23.6904 34.6916C23.3033 35.9745 22.1123 36.9087 20.7031 36.9087C19.3116 36.9087 18.1328 35.9978 17.7307 34.7399C11.7038 33.5699 6.97083 28.774 5.89637 22.7127C4.66137 22.2976 3.77295 21.1301 3.77295 19.7547C3.77295 18.3269 4.73221 17.1231 6.04146 16.7526C7.34862 11.0327 11.9432 6.56394 17.731 5.44015C18.1336 4.18279 19.312 3.27246 20.7031 3.27246C22.1118 3.27246 23.3025 4.2061 23.6901 5.48832ZM8.35233 22.5112C9.33853 21.9871 10.0101 20.9493 10.0101 19.7547C10.0101 18.6154 9.39858 17.6168 8.48502 17.0723C9.62674 12.4773 13.3162 8.88903 17.9674 7.89329C18.498 8.85804 19.5242 9.51184 20.7031 9.51184C21.8639 9.51184 22.8767 8.8779 23.414 7.93737C27.9717 8.99134 31.5729 12.5426 32.6984 17.0721C31.7845 17.6162 31.1722 18.6139 31.1722 19.7547C31.1722 20.9505 31.8438 21.9892 32.8308 22.5128C31.8836 27.3247 28.1691 31.1432 23.4134 32.2428C22.8759 31.3028 21.8635 30.6693 20.7031 30.6693C19.5246 30.6693 18.4988 31.3227 17.968 32.2868C13.1171 31.2486 9.31213 27.3904 8.35233 22.5112ZM20.7026 23.3212C22.4257 23.3212 23.8226 21.9245 23.8226 20.2015C23.8226 18.4786 22.4285 17.0818 20.7054 17.0818C18.9823 17.0818 17.5854 18.4786 17.5854 20.2015C17.5854 21.9245 18.9795 23.3212 20.7026 23.3212Z" fill="white"/>
<path fill-rule="evenodd" clip-rule="evenodd" d="M23.6901 5.48832C29.3657 6.68684 33.8527 11.1111 35.1419 16.7524C36.4512 17.123 37.4093 18.3287 37.4093 19.7547C37.4093 21.1287 36.5209 22.2952 35.2872 22.7114C34.2271 28.6918 29.604 33.4427 23.6904 34.6916C23.3033 35.9745 22.1123 36.9087 20.7031 36.9087C19.3116 36.9087 18.1328 35.9978 17.7307 34.7399C11.7038 33.5699 6.97083 28.774 5.89637 22.7127C4.66137 22.2976 3.77295 21.1301 3.77295 19.7547C3.77295 18.3269 4.73221 17.1231 6.04146 16.7526C7.34862 11.0327 11.9432 6.56394 17.731 5.44015C18.1336 4.18279 19.312 3.27246 20.7031 3.27246C22.1118 3.27246 23.3025 4.2061 23.6901 5.48832ZM8.35233 22.5112C9.33853 21.9871 10.0101 20.9493 10.0101 19.7547C10.0101 18.6154 9.39858 17.6168 8.48502 17.0723C9.62674 12.4773 13.3162 8.88903 17.9674 7.89329C18.498 8.85804 19.5242 9.51184 20.7031 9.51184C21.8639 9.51184 22.8767 8.8779 23.414 7.93737C27.9717 8.99134 31.5729 12.5426 32.6984 17.0721C31.7845 17.6162 31.1722 18.6139 31.1722 19.7547C31.1722 20.9505 31.8438 21.9892 32.8308 22.5128C31.8836 27.3247 28.1691 31.1432 23.4134 32.2428C22.8759 31.3028 21.8635 30.6693 20.7031 30.6693C19.5246 30.6693 18.4988 31.3227 17.968 32.2868C13.1171 31.2486 9.31213 27.3904 8.35233 22.5112ZM20.7026 23.3212C22.4257 23.3212 23.8226 21.9245 23.8226 20.2015C23.8226 18.4786 22.4285 17.0818 20.7054 17.0818C18.9823 17.0818 17.5854 18.4786 17.5854 20.2015C17.5854 21.9245 18.9795 23.3212 20.7026 23.3212Z" fill="url(#paint0_linear)"/>
<path d="M23.6901 5.48832L23.671 5.49409L23.6744 5.50539L23.6859 5.50784L23.6901 5.48832ZM35.1419 16.7524L35.1225 16.7568L35.1251 16.7683L35.1365 16.7716L35.1419 16.7524ZM35.2872 22.7114L35.2808 22.6925L35.2696 22.6963L35.2675 22.7079L35.2872 22.7114ZM23.6904 34.6916L23.6863 34.6721L23.6748 34.6745L23.6713 34.6858L23.6904 34.6916ZM17.7307 34.7399L17.7497 34.7338L17.7461 34.7225L17.7345 34.7203L17.7307 34.7399ZM5.89637 22.7127L5.91601 22.7092L5.91395 22.6975L5.90272 22.6937L5.89637 22.7127ZM6.04146 16.7526L6.04689 16.7717L6.05827 16.7685L6.0609 16.757L6.04146 16.7526ZM17.731 5.44015L17.7348 5.45974L17.7464 5.45749L17.75 5.44624L17.731 5.44015ZM8.35233 22.5112L8.34297 22.4936L8.3299 22.5005L8.33275 22.5151L8.35233 22.5112ZM8.48502 17.0723L8.46566 17.0674L8.46209 17.0818L8.47481 17.0894L8.48502 17.0723ZM17.9674 7.89329L17.9849 7.88367L17.9777 7.87068L17.9632 7.87378L17.9674 7.89329ZM23.414 7.93737L23.4185 7.91793L23.4041 7.91459L23.3967 7.92747L23.414 7.93737ZM32.6984 17.0721L32.7086 17.0893L32.7213 17.0817L32.7178 17.0673L32.6984 17.0721ZM32.8308 22.5128L32.8504 22.5167L32.8532 22.5021L32.8401 22.4952L32.8308 22.5128ZM23.4134 32.2428L23.3961 32.2527L23.4035 32.2655L23.4179 32.2622L23.4134 32.2428ZM17.968 32.2868L17.9638 32.3063L17.9783 32.3094L17.9855 32.2964L17.968 32.2868ZM23.6859 5.50784C29.354 6.70475 33.8349 11.1232 35.1225 16.7568L35.1614 16.7479C33.8704 11.0991 29.3774 6.66893 23.6942 5.4688L23.6859 5.50784ZM37.4292 19.7547C37.4292 18.3195 36.4651 17.1062 35.1474 16.7332L35.1365 16.7716C36.4374 17.1398 37.3893 18.3378 37.3893 19.7547H37.4292ZM35.2936 22.7303C36.5351 22.3115 37.4292 21.1375 37.4292 19.7547H37.3893C37.3893 21.1198 36.5067 22.279 35.2808 22.6925L35.2936 22.7303ZM35.2675 22.7079C34.2088 28.6803 29.5919 33.4248 23.6863 34.6721L23.6946 34.7111C29.6161 33.4605 34.2453 28.7033 35.3068 22.7149L35.2675 22.7079ZM20.7031 36.9287C22.1213 36.9287 23.3199 35.9884 23.7095 34.6973L23.6713 34.6858C23.2867 35.9605 22.1032 36.8888 20.7031 36.8888V36.9287ZM17.7117 34.7459C18.1164 36.0119 19.3026 36.9287 20.7031 36.9287V36.8888C19.3205 36.8888 18.1493 35.9837 17.7497 34.7338L17.7117 34.7459ZM17.7345 34.7203C11.7157 33.5519 6.98903 28.7624 5.91601 22.7092L5.87673 22.7161C6.95263 28.7857 11.6919 33.5879 17.7269 34.7594L17.7345 34.7203ZM5.90272 22.6937C4.67562 22.2814 3.7929 21.1213 3.7929 19.7547H3.753C3.753 21.1389 4.64712 22.3139 5.89001 22.7316L5.90272 22.6937ZM3.7929 19.7547C3.7929 18.336 4.74601 17.1399 6.04689 16.7717L6.03602 16.7334C4.71842 17.1063 3.753 18.3177 3.753 19.7547H3.7929ZM6.0609 16.757C7.36631 11.0448 11.9548 6.58201 17.7348 5.45974L17.7272 5.42057C11.9316 6.54586 7.33092 11.0206 6.02201 16.7481L6.0609 16.757ZM17.75 5.44624C18.15 4.19689 19.3209 3.29241 20.7031 3.29241V3.25251C19.3031 3.25251 18.1171 4.16868 17.712 5.43407L17.75 5.44624ZM20.7031 3.29241C22.1028 3.29241 23.2859 4.22006 23.671 5.49409L23.7092 5.48254C23.3191 4.19214 22.1209 3.25251 20.7031 3.25251V3.29241ZM9.99012 19.7547C9.99012 20.9416 9.32291 21.9728 8.34297 22.4936L8.36169 22.5288C9.35414 22.0014 10.03 20.9569 10.03 19.7547H9.99012ZM8.47481 17.0894C9.38258 17.6305 9.99012 18.6227 9.99012 19.7547H10.03C10.03 18.6081 9.41459 17.6031 8.49523 17.0551L8.47481 17.0894ZM17.9632 7.87378C13.3045 8.87112 9.60921 12.4651 8.46566 17.0674L8.50438 17.0771C9.64426 12.4895 13.3278 8.90694 17.9716 7.9128L17.9632 7.87378ZM20.7031 9.49189C19.5317 9.49189 18.5121 8.84231 17.9849 7.88367L17.9499 7.9029C18.4839 8.87377 19.5166 9.53179 20.7031 9.53179V9.49189ZM23.3967 7.92747C22.8628 8.86204 21.8564 9.49189 20.7031 9.49189V9.53179C21.8713 9.53179 22.8906 8.89376 23.4313 7.94726L23.3967 7.92747ZM32.7178 17.0673C31.5904 12.5305 27.9835 8.9736 23.4185 7.91793L23.4095 7.9568C27.9599 9.00909 31.5553 12.5547 32.679 17.0769L32.7178 17.0673ZM32.6882 17.055C31.7685 17.6025 31.1522 18.6066 31.1522 19.7547H31.1921C31.1921 18.6212 31.8005 17.6299 32.7086 17.0893L32.6882 17.055ZM31.1522 19.7547C31.1522 20.9582 31.8281 22.0035 32.8214 22.5305L32.8401 22.4952C31.8594 21.9749 31.1921 20.9428 31.1921 19.7547H31.1522ZM23.4179 32.2622C28.1813 31.1609 31.9016 27.3363 32.8504 22.5167L32.8112 22.509C31.8655 27.3131 28.157 31.1256 23.4089 32.2233L23.4179 32.2622ZM23.4307 32.2329C22.8898 31.2869 21.8709 30.6494 20.7031 30.6494V30.6893C21.856 30.6893 22.862 31.3187 23.3961 32.2527L23.4307 32.2329ZM20.7031 30.6494C19.5171 30.6494 18.4846 31.3069 17.9505 32.2772L17.9855 32.2964C18.5129 31.3384 19.5322 30.6893 20.7031 30.6893V30.6494ZM8.33275 22.5151C9.2941 27.4021 13.1051 31.2664 17.9638 32.3063L17.9722 32.2673C13.129 31.2307 9.33017 27.3787 8.3719 22.5074L8.33275 22.5151ZM23.8026 20.2015C23.8026 21.9134 22.4147 23.3013 20.7026 23.3013V23.3412C22.4367 23.3412 23.8425 21.9355 23.8425 20.2015H23.8026ZM20.7054 17.1018C22.4174 17.1018 23.8026 18.4896 23.8026 20.2015H23.8425C23.8425 18.4676 22.4395 17.0619 20.7054 17.0619V17.1018ZM17.6054 20.2015C17.6054 18.4896 18.9933 17.1018 20.7054 17.1018V17.0619C18.9713 17.0619 17.5655 18.4676 17.5655 20.2015H17.6054ZM20.7026 23.3013C18.9906 23.3013 17.6054 21.9135 17.6054 20.2015H17.5655C17.5655 21.9355 18.9685 23.3412 20.7026 23.3412V23.3013Z" fill="url(#paint1_linear)"/>
<defs>
<linearGradient id="paint0_linear" x1="3.77295" y1="20.0906" x2="37.4093" y2="20.0906" gradientUnits="userSpaceOnUse">
<stop stop-color="#8180EF"/>
<stop offset="1" stop-color="#8EB5FF"/>
</linearGradient>
<linearGradient id="paint1_linear" x1="3.77295" y1="20.0906" x2="37.4093" y2="20.0906" gradientUnits="userSpaceOnUse">
<stop stop-color="#DFF4FE"/>
<stop offset="1" stop-color="#8EB5FF"/>
</linearGradient>
</defs>
</svg>
