<svg width="812" height="792" viewBox="0 0 812 792" fill="none" xmlns="http://www.w3.org/2000/svg">
<path d="M779.862 596.425C779.862 703.733 612.794 790.724 406.706 790.724C200.619 790.724 33.5513 703.733 33.5513 596.425C33.5513 489.117 200.619 402.127 406.706 402.127C612.794 402.127 779.862 489.117 779.862 596.425Z" fill="url(#paint0_radial)"/>
<path d="M335.263 310.256C351.526 322.08 362.232 342.222 362.232 365.122C362.232 384.388 354.634 401.699 342.546 413.765C342.443 413.867 342.34 413.972 342.237 414.074C342.211 414.16 342.115 414.283 341.928 414.427C338.808 417.966 333.58 422.022 326.876 426.654C349.908 419.448 377.303 415.222 406.725 415.222C409.577 415.222 412.388 415.277 415.2 415.354C417.794 415.426 420.369 415.483 422.925 415.619C423.13 415.633 423.338 415.652 423.543 415.663C424 415.688 424.455 415.724 424.911 415.751C427.07 415.879 429.227 416.018 431.356 416.192C431.487 416.206 431.621 416.226 431.753 416.236C432.107 416.265 432.459 416.293 432.812 416.323C434.782 416.494 436.741 416.689 438.683 416.897C439.062 416.938 439.452 416.988 439.831 417.03C440.243 417.076 440.656 417.115 441.066 417.163C442.606 417.341 444.137 417.535 445.657 417.736C446.993 417.912 448.309 418.117 449.63 418.31C449.979 418.361 450.34 418.389 450.689 418.443C452.276 418.682 453.848 418.929 455.412 419.193C455.603 419.226 455.795 419.249 455.986 419.281C457.16 419.483 458.312 419.727 459.473 419.943C463.138 420.623 466.769 421.334 470.287 422.15C470.29 422.151 470.284 422.194 470.287 422.194C475.223 423.339 479.974 424.596 484.589 425.99C484.666 425.936 484.74 425.869 484.809 425.813C479.516 422.231 474.929 418.662 471.038 415.264C470.786 415.078 470.591 414.956 470.464 414.822C470.426 414.788 470.413 414.724 470.375 414.69C470.348 414.649 470.296 414.589 470.287 414.557C457.735 402.464 449.806 384.807 449.806 365.12C449.806 342.22 460.512 322.078 476.776 310.254C453.796 311.812 430.161 312.637 406.019 312.637C381.893 312.637 358.229 311.81 335.263 310.254V310.256Z" fill="url(#paint1_radial)"/>
<path d="M811 156.82C811 242.876 629.675 312.639 406 312.639C182.325 312.639 1 242.876 1 156.82C1 70.7628 182.325 1 406 1C629.675 1 811 70.7628 811 156.82Z" fill="url(#paint2_linear)" stroke="#637EA1" stroke-width="0.6" stroke-linecap="round" stroke-linejoin="round"/>
<path opacity="0.6" d="M468.09 418.323C468.09 426.386 461.57 434.119 449.964 439.82C438.358 445.522 422.617 448.725 406.204 448.725C389.79 448.725 374.049 445.522 362.443 439.82C350.837 434.119 344.317 426.386 344.317 418.323C344.317 410.26 350.837 402.527 362.443 396.825C374.049 391.124 389.79 387.921 406.204 387.921C422.617 387.921 438.358 391.124 449.964 396.825C461.57 402.527 468.09 410.26 468.09 418.323Z" fill="#C2CBFB"/>
<path opacity="0.8" d="M585.032 112.219C555.374 113.012 518.928 126.798 483.289 153.048C426.441 194.92 389.281 255.628 388.741 301.756C394.399 301.902 400.253 301.998 406.486 302.021C446.272 302.171 492.116 298.063 511.583 289.53C539.185 277.43 546.982 276.938 561.329 271.079C566.648 268.907 588.115 264.206 616.195 259.382C645.136 218.505 657.337 174.879 644.533 144.838C635.247 123.051 614.466 112.258 587.857 112.219C586.915 112.217 585.989 112.193 585.032 112.219ZM584.017 296.769C581.077 297.324 578.125 297.918 575.145 298.446C578.102 297.922 581.011 297.407 583.929 296.857C583.959 296.828 583.987 296.798 584.017 296.769ZM528.533 305.376C524.998 305.807 521.428 306.217 517.851 306.612C521.431 306.217 524.994 305.807 528.533 305.376ZM517.851 306.612C509.958 307.483 501.966 308.263 493.883 308.951C501.963 308.264 509.961 307.482 517.851 306.612ZM493.883 308.951C490.266 309.259 486.633 309.563 482.98 309.834C486.636 309.564 490.263 309.259 493.883 308.951ZM480.42 310.011C477.782 310.199 475.131 310.371 472.475 310.54C475.13 310.372 477.783 310.199 480.42 310.011ZM389.271 312.482C389.273 312.497 389.269 312.512 389.271 312.527C391.409 312.561 393.57 312.55 395.715 312.571C393.567 312.55 391.411 312.516 389.271 312.482Z" fill="url(#paint3_radial)" stroke="url(#paint4_radial)"/>
<g opacity="0.8" filter="url(#filter0_f)">
<path d="M310.832 548.073C247.66 580.507 183.56 583.771 164.411 556.527C146.481 531.018 204.272 519.134 259.236 477.774C314.2 436.415 339.902 416.694 371.119 414.768C393.148 413.408 412.275 406.052 421.877 417.533C448.176 448.982 384.026 510.493 310.832 548.073Z" fill="url(#paint5_radial)"/>
<path d="M310.832 548.073C247.66 580.507 183.56 583.771 164.411 556.527C146.481 531.018 204.272 519.134 259.236 477.774C314.2 436.415 339.902 416.694 371.119 414.768C393.148 413.408 412.275 406.052 421.877 417.533C448.176 448.982 384.026 510.493 310.832 548.073Z" stroke="url(#paint6_radial)" stroke-width="1.58905"/>
</g>
<g opacity="0.8" filter="url(#filter1_f)">
<path d="M370.305 297.476C376.027 292.131 394.372 301.175 404.1 298.5C398.199 251.101 328.415 134.069 289.403 59.8896C238.32 68.4211 135.481 102.646 107.629 166.394C200.737 195.001 262.095 230.599 370.305 297.476Z" fill="url(#paint7_linear)"/>
<path d="M370.305 297.476C376.027 292.131 394.372 301.175 404.1 298.5C398.199 251.101 328.415 134.069 289.403 59.8896C238.32 68.4211 135.481 102.646 107.629 166.394C200.737 195.001 262.095 230.599 370.305 297.476Z" stroke="url(#paint8_radial)"/>
</g>
<g opacity="0.8" filter="url(#filter2_f)">
<path d="M424.098 419.639C433.732 418.652 457.404 421.35 463.535 418.283C506.729 467.108 696.435 551.109 727.986 542.896C739.91 595.306 723.143 676.488 571.573 719.585C537.197 640.185 443.677 518.681 424.098 419.639Z" fill="url(#paint9_linear)"/>
<path d="M424.098 419.639C433.732 418.652 457.404 421.35 463.535 418.283C506.729 467.108 696.435 551.109 727.986 542.896C739.91 595.306 723.143 676.488 571.573 719.585C537.197 640.185 443.677 518.681 424.098 419.639Z" stroke="url(#paint10_radial)"/>
</g>
<path d="M738.88 245.547C671.437 247.464 573.574 266.091 561.318 271.097C546.971 276.956 539.163 277.413 511.562 289.512C492.094 298.046 446.292 302.152 406.505 302.002C346.518 301.777 313.541 295.537 299.906 290.217C296.969 289.07 279.206 282.367 266.404 279.932C223.822 271.831 162.807 266.261 122.507 268.058" stroke="#637EA1" stroke-width="0.6" stroke-linecap="round" stroke-linejoin="round"/>
<path d="M266.363 303.13C282.341 299.195 318.645 295.273 318.645 295.273" stroke="#637EA1" stroke-width="0.6" stroke-linecap="round" stroke-linejoin="round"/>
<path d="M606.936 292.139C557.718 286.75 517.224 288.031 517.224 288.031" stroke="#637EA1" stroke-width="0.6"/>
<path d="M439.678 312.104C436.476 308.281 433.703 304.886 430.964 301.525" stroke="#637EA1" stroke-width="0.6" stroke-linecap="round" stroke-linejoin="round"/>
<path opacity="0.6" d="M344.316 418.322C344.316 401.531 372.024 387.92 406.203 387.92C440.382 387.92 468.09 401.531 468.09 418.322" stroke="#534C72" stroke-width="0.6" stroke-linecap="round" stroke-linejoin="round"/>
<path d="M470.191 309.742C470.191 325.899 441.677 338.996 406.503 338.996C371.328 338.996 342.814 325.899 342.814 309.742" stroke="#534C72" stroke-width="0.6" stroke-linecap="round" stroke-linejoin="round"/>
<path d="M401.078 388.023C402.353 357.369 402.009 334.825 401.133 312.789" stroke="#534C72" stroke-width="0.6" stroke-linejoin="round"/>
<path d="M422.571 388.995C420.159 370.23 418.15 344.042 421.718 312.524" stroke="#534C72" stroke-width="0.6" stroke-linejoin="round"/>
<path d="M376.941 391.527C387.163 372.142 386.699 337.377 383.439 312.401" stroke="#534C72" stroke-width="0.6" stroke-linejoin="round"/>
<path d="M358.143 399.167C369.046 386.507 378.272 351.839 364.368 311.825" stroke="#534C72" stroke-width="0.6" stroke-linejoin="round"/>
<path d="M439.919 392.825C434.89 367.892 429.427 341.572 438.751 312.139" stroke="#534C72" stroke-width="0.6" stroke-linejoin="round"/>
<path d="M787.943 163.105C787.943 245.69 616.941 312.639 406 312.639C195.059 312.639 24.0571 245.69 24.0571 163.105C24.0571 80.5191 195.059 13.5703 406 13.5703C616.941 13.5703 787.943 80.5191 787.943 163.105Z" stroke="#6A84A7" stroke-width="0.6" stroke-linecap="round" stroke-linejoin="round"/>
<path d="M765.011 168.384C765.011 246.11 604.276 309.119 406 309.119C207.724 309.119 46.9893 246.11 46.9893 168.384C46.9893 90.6585 207.724 27.6494 406 27.6494C604.276 27.6494 765.011 90.6585 765.011 168.384Z" stroke="#637EA1" stroke-width="0.6" stroke-linecap="round" stroke-linejoin="round"/>
<path d="M741.192 174.418C741.192 247.423 591.121 306.604 406 306.604C220.879 306.604 70.8081 247.423 70.8081 174.418C70.8081 101.413 220.879 42.2314 406 42.2314C591.121 42.2314 741.192 101.413 741.192 174.418Z" stroke="#627C9F" stroke-width="0.6" stroke-linecap="round" stroke-linejoin="round"/>
<path d="M718.267 181.206C718.267 249.906 578.461 305.599 406 305.599C233.54 305.599 93.7329 249.906 93.7329 181.206C93.7329 112.506 233.54 56.8135 406 56.8135C578.461 56.8135 718.267 112.506 718.267 181.206Z" stroke="#627A9D" stroke-width="0.6" stroke-linecap="round" stroke-linejoin="round"/>
<path d="M695.784 188.247C695.784 252.226 566.043 304.091 406 304.091C245.956 304.091 116.215 252.226 116.215 188.247C116.215 124.268 245.956 72.4023 406 72.4023C566.043 72.4023 695.784 124.268 695.784 188.247Z" stroke="#61779B" stroke-width="0.6" stroke-linecap="round" stroke-linejoin="round"/>
<path d="M672.751 196.292C672.751 255.828 553.322 304.092 406 304.092C258.677 304.092 139.248 255.828 139.248 196.292C139.248 136.757 258.677 88.4932 406 88.4932C553.322 88.4932 672.751 136.757 672.751 196.292Z" stroke="#607598" stroke-width="0.6" stroke-linecap="round" stroke-linejoin="round"/>
<path d="M650.445 203.834C650.445 258.649 541.003 303.085 406 303.085C270.997 303.085 161.556 258.649 161.556 203.834C161.556 149.019 270.997 104.583 406 104.583C541.003 104.583 650.445 149.019 650.445 203.834Z" stroke="#5F7497" stroke-width="0.6" stroke-linecap="round" stroke-linejoin="round"/>
<path d="M628.908 212.633C628.908 262.588 529.222 303.085 406.252 303.085C283.282 303.085 183.595 262.588 183.595 212.633C183.595 162.678 283.282 122.182 406.252 122.182C529.222 122.182 628.908 162.678 628.908 212.633Z" stroke="#5E7093" stroke-width="0.6" stroke-linecap="round" stroke-linejoin="round"/>
<path d="M606.757 221.685C606.757 266.641 517.1 303.085 406.503 303.085C295.906 303.085 206.25 266.641 206.25 221.685C206.25 176.728 295.906 140.284 406.503 140.284C517.1 140.284 606.757 176.728 606.757 221.685Z" stroke="#5F7195" stroke-width="0.6" stroke-linecap="round" stroke-linejoin="round"/>
<path d="M584.046 232.408C584.046 273.012 504.557 305.929 406.503 305.929C308.448 305.929 228.959 273.012 228.959 232.408C228.959 191.804 308.448 158.888 406.503 158.888C504.557 158.888 584.046 191.804 584.046 232.408Z" stroke="#5D6A8E" stroke-width="0.6" stroke-linecap="round" stroke-linejoin="round"/>
<path d="M561.598 242.898C561.598 278.495 492.159 307.352 406.503 307.352C320.846 307.352 251.408 278.495 251.408 242.898C251.408 207.301 320.846 178.444 406.503 178.444C492.159 178.444 561.598 207.301 561.598 242.898Z" stroke="#5C688C" stroke-width="0.6" stroke-linecap="round" stroke-linejoin="round"/>
<path d="M539.373 255.697C539.373 286.581 479.885 311.617 406.503 311.617C333.121 311.617 273.633 286.581 273.633 255.697C273.633 224.813 333.121 199.776 406.503 199.776C479.885 199.776 539.373 224.813 539.373 255.697Z" stroke="#5B6488" stroke-width="0.6" stroke-linecap="round" stroke-linejoin="round"/>
<path d="M517.838 269.92C517.838 295.699 467.992 316.596 406.503 316.596C345.014 316.596 295.167 295.699 295.167 269.92C295.167 244.142 345.014 223.244 406.503 223.244C467.992 223.244 517.838 244.142 517.838 269.92Z" stroke="#5A6185" stroke-width="0.6" stroke-linecap="round" stroke-linejoin="round"/>
<path d="M495.752 286.986C495.752 307.659 455.794 324.418 406.503 324.418C357.212 324.418 317.253 307.659 317.253 286.986C317.253 266.313 357.212 249.555 406.503 249.555C455.794 249.555 495.752 266.313 495.752 286.986Z" stroke="#585D82" stroke-width="0.6" stroke-linecap="round" stroke-linejoin="round"/>
<path d="M342.814 309.742C342.814 293.586 371.328 280.488 406.503 280.488C441.677 280.488 470.191 293.586 470.191 309.742" stroke="#57587D" stroke-width="0.6" stroke-linecap="round" stroke-linejoin="round"/>
<path d="M759.14 586.795C759.14 688.229 601.35 770.457 406.706 770.457C212.063 770.457 54.2734 688.229 54.2734 586.795C54.2734 485.361 212.063 403.133 406.706 403.133C601.35 403.133 759.14 485.361 759.14 586.795V586.795Z" stroke="#637EA1" stroke-width="0.6" stroke-linecap="round" stroke-linejoin="round"/>
<path d="M738.756 577.595C738.756 673.114 590.092 750.547 406.706 750.547C223.321 750.547 74.6572 673.114 74.6572 577.595C74.6572 482.076 223.321 404.643 406.706 404.643C590.092 404.643 738.756 482.076 738.756 577.595V577.595Z" stroke="#637EA1" stroke-width="0.6" stroke-linecap="round" stroke-linejoin="round"/>
<path d="M719.234 568.795C719.234 657.788 579.311 729.931 406.707 729.931C234.102 729.931 94.1792 657.788 94.1792 568.795C94.1792 479.802 234.102 407.659 406.707 407.659C579.311 407.659 719.234 479.802 719.234 568.795V568.795Z" stroke="#637EA1" stroke-width="0.6" stroke-linecap="round" stroke-linejoin="round"/>
<path d="M698.609 559.492C698.609 642.237 567.92 709.314 406.707 709.314C245.493 709.314 114.804 642.237 114.804 559.492C114.804 476.748 245.493 409.67 406.707 409.67C567.92 409.67 698.609 476.748 698.609 559.492V559.492Z" stroke="#637EA1" stroke-width="0.6" stroke-linecap="round" stroke-linejoin="round"/>
<path d="M677.984 549.939C677.984 626.574 556.529 688.699 406.706 688.699C256.884 688.699 135.429 626.574 135.429 549.939C135.429 473.304 256.884 411.179 406.706 411.179C556.529 411.179 677.984 473.304 677.984 549.939V549.939Z" stroke="#627C9F" stroke-width="0.6" stroke-linecap="round" stroke-linejoin="round"/>
<path d="M657.1 539.63C657.1 610.294 544.995 667.579 406.707 667.579C268.418 667.579 156.313 610.294 156.313 539.63C156.313 468.965 268.418 411.681 406.707 411.681C544.995 411.681 657.1 468.965 657.1 539.63V539.63Z" stroke="#607699" stroke-width="0.6" stroke-linecap="round" stroke-linejoin="round"/>
<path d="M636.954 530.579C636.954 595.134 533.869 647.466 406.707 647.466C279.545 647.466 176.46 595.134 176.46 530.579C176.46 466.024 279.545 413.692 406.707 413.692C533.869 413.692 636.954 466.024 636.954 530.579V530.579Z" stroke="#607699" stroke-width="0.6" stroke-linecap="round" stroke-linejoin="round"/>
<path d="M615.444 520.271C615.444 578.855 521.989 626.347 406.706 626.347C291.423 626.347 197.968 578.855 197.968 520.271C197.968 461.687 291.423 414.195 406.706 414.195C521.989 414.195 615.444 461.687 615.444 520.271V520.271Z" stroke="#5F7396" stroke-width="0.6" stroke-linecap="round" stroke-linejoin="round"/>
<path d="M596.614 509.713C596.614 561.632 511.589 603.721 406.706 603.721C301.823 603.721 216.799 561.632 216.799 509.713C216.799 457.794 301.823 415.705 406.706 415.705C511.589 415.705 596.614 457.794 596.614 509.713V509.713Z" stroke="#5E7093" stroke-width="0.6" stroke-linecap="round" stroke-linejoin="round"/>
<path d="M575.398 498.651C575.398 544.46 499.872 581.596 406.706 581.596C313.541 581.596 238.015 544.46 238.015 498.651C238.015 452.841 313.541 415.705 406.706 415.705C499.872 415.705 575.398 452.841 575.398 498.651V498.651Z" stroke="#5D6C90" stroke-width="0.6" stroke-linecap="round" stroke-linejoin="round"/>
<path d="M532.93 473.005C532.93 507.429 476.418 535.335 406.706 535.335C336.995 535.335 280.483 507.429 280.483 473.005C280.483 438.582 336.995 410.676 406.706 410.676C476.418 410.676 532.93 438.582 532.93 473.005V473.005Z" stroke="#5B6589" stroke-width="0.6" stroke-linecap="round" stroke-linejoin="round"/>
<path d="M554.548 487.085C554.548 526.785 488.357 558.968 406.706 558.968C325.056 558.968 258.865 526.785 258.865 487.085C258.865 447.384 325.056 415.201 406.706 415.201C488.357 415.201 554.548 447.384 554.548 487.085V487.085Z" stroke="#5C698D" stroke-width="0.6" stroke-linecap="round" stroke-linejoin="round"/>
<path d="M512.714 457.92C512.714 486.511 465.253 509.69 406.706 509.69C348.16 509.69 300.698 486.511 300.698 457.92C300.698 429.328 348.16 406.149 406.706 406.149C465.253 406.149 512.714 429.328 512.714 457.92V457.92Z" stroke="#5775A2" stroke-width="0.6" stroke-linecap="round" stroke-linejoin="round"/>
<path d="M491.222 440.321C491.222 463.291 453.158 481.911 406.203 481.911C359.249 481.911 321.185 463.291 321.185 440.321C321.185 417.352 359.249 398.731 406.203 398.731C453.158 398.731 491.222 417.352 491.222 440.321V440.321Z" stroke="#595D82" stroke-width="0.6" stroke-linecap="round" stroke-linejoin="round"/>
<path d="M462.141 405.3C465.956 409.247 468.09 413.662 468.09 418.322C468.09 435.113 440.383 448.724 406.204 448.724C372.025 448.724 344.317 435.113 344.317 418.322C344.317 413.919 346.222 409.735 349.65 405.957" stroke="#57587D" stroke-width="0.6" stroke-linecap="round" stroke-linejoin="round"/>
<path d="M759.14 586.795C759.14 688.229 601.35 770.457 406.706 770.457C212.063 770.457 54.2734 688.229 54.2734 586.795C54.2734 485.361 212.063 403.133 406.706 403.133C601.35 403.133 759.14 485.361 759.14 586.795V586.795Z" stroke="#637EA1" stroke-width="0.6" stroke-linecap="round" stroke-linejoin="round"/>
<path d="M779.862 596.425C779.862 703.733 612.794 790.724 406.706 790.724C200.619 790.724 33.5513 703.733 33.5513 596.425C33.5513 489.117 200.619 402.127 406.706 402.127C612.794 402.127 779.862 489.117 779.862 596.425V596.425Z" stroke="#567DAE" stroke-width="0.6" stroke-linecap="round" stroke-linejoin="round"/>
<path d="M28.4653 213.341C207.884 236.552 282.839 275.29 309.627 293.252" stroke="url(#paint11_radial)" stroke-width="0.6" stroke-linecap="round" stroke-linejoin="round"/>
<path d="M1.33691 150.402C224.341 215.66 299.379 269.309 323.645 296.197" stroke="url(#paint12_radial)" stroke-width="0.6" stroke-linejoin="round"/>
<path d="M38.1338 91.5508C191.648 166.517 302.324 238.168 340.55 298.598" stroke="url(#paint13_radial)" stroke-width="0.6" stroke-linejoin="round"/>
<path d="M123.696 45.0938C258.852 151.66 338.527 245.451 360.562 300.433" stroke="url(#paint14_radial)" stroke-width="0.6" stroke-linejoin="round"/>
<path d="M242.485 14.2217C297.795 103.059 362.648 218.055 380.554 301.491" stroke="url(#paint15_radial)" stroke-width="0.6" stroke-linejoin="round"/>
<path d="M462.384 299.109C503.529 216.768 672.888 111.225 743.054 70.3994" stroke="url(#paint16_radial)" stroke-width="0.6" stroke-linejoin="round"/>
<path d="M480.158 297.269C535.45 224.902 726.572 152.476 802.105 124.189" stroke="url(#paint17_radial)" stroke-width="0.6" stroke-linejoin="round"/>
<path d="M443.411 300.824C471.795 206.204 593.649 79.5778 641.95 30.1602" stroke="url(#paint18_radial)" stroke-width="0.6" stroke-linejoin="round"/>
<path d="M515.674 6.78125C446.383 165.229 423.35 280.479 422.12 301.832" stroke="url(#paint19_radial)" stroke-width="0.6" stroke-linejoin="round"/>
<path d="M400.923 301.964C393.935 137.582 379.269 28.6339 377.11 1.39062" stroke="url(#paint20_radial)" stroke-width="0.6" stroke-linejoin="round"/>
<path d="M592.556 764.949C560.236 710.041 432.046 503.586 425.278 392.383C423.403 361.569 431.209 334.08 453.538 311.577" stroke="url(#paint21_radial)" stroke-width="0.6" stroke-linejoin="round"/>
<path d="M710.856 709.02C573.266 595.845 463.056 484.877 444.159 409.986C433.007 365.788 443.526 330.755 476.776 310.257" stroke="url(#paint22_radial)" stroke-width="0.6" stroke-linejoin="round"/>
<path d="M772.686 558.314C636.917 522.005 531.742 481.02 470.817 418.307" stroke="url(#paint23_radial)" stroke-width="0.6" stroke-linecap="round" stroke-linejoin="round"/>
<path d="M718.302 489.484C686.473 487.638 655.545 481.703 626.509 476.896C549.955 464.221 495.02 436.635 470.322 414.693" stroke="url(#paint24_radial)" stroke-width="0.6" stroke-linecap="round" stroke-linejoin="round"/>
<path d="M142.817 734.69C233.944 636.893 375.927 480.793 375.927 383.156C375.927 346.134 364.924 331.157 338.004 310.453" stroke="url(#paint25_radial)" stroke-width="0.6" stroke-linejoin="round"/>
<path d="M58.5356 666.471C126.46 624.998 309.179 515.113 354.127 419.683C364.344 397.992 365.371 374.075 360.498 349.383" stroke="url(#paint26_radial)" stroke-width="0.6" stroke-linecap="round" stroke-linejoin="round"/>
<path d="M33.7944 589.34C122.593 558.855 230.789 511.918 283.887 472.995C324.668 443.1 350.65 416.03 351.255 402.972" stroke="url(#paint27_radial)" stroke-width="0.6" stroke-linecap="round" stroke-linejoin="round"/>
<path d="M66.5176 516.463C173.942 498.825 259.628 471.536 302.297 443.011C321.151 430.406 336.571 421.061 342.53 413.785" stroke="url(#paint28_radial)" stroke-width="0.6" stroke-linecap="round" stroke-linejoin="round"/>
<path d="M145.348 457.745C247.034 459.389 303.434 438.145 330.757 423.922" stroke="url(#paint29_radial)" stroke-width="0.6" stroke-linecap="round" stroke-linejoin="round"/>
<path d="M255.267 418.795C294.768 430.672 328.715 425.752 328.771 425.23" stroke="url(#paint30_radial)" stroke-width="0.6" stroke-linecap="round" stroke-linejoin="round"/>
<path d="M624.865 438.774C510.958 450.547 472.114 417.006 472.306 416.412" stroke="url(#paint31_radial)" stroke-width="0.6" stroke-linecap="round" stroke-linejoin="round"/>
<path d="M508.645 409.466C483.684 420.588 474.552 418.266 474.552 418.266" stroke="url(#paint32_radial)" stroke-width="0.6" stroke-linecap="round" stroke-linejoin="round"/>
<path d="M438.26 790.039C425.463 660.784 408.672 473.598 408.672 390.435C409.156 366.921 407.826 334.532 415.749 312.595" stroke="url(#paint33_radial)" stroke-width="0.6" stroke-linejoin="round"/>
<path d="M277.26 778.716C327.562 650.665 391.594 484.072 391.594 383.739C391.594 354.633 386.179 329.99 369.484 311.925" stroke="url(#paint34_radial)" stroke-width="0.6" stroke-linejoin="round"/>
<path opacity="0.5" d="M335.263 310.257C351.526 322.081 362.232 342.223 362.232 365.123C362.232 384.389 354.634 401.7 342.546 413.766C342.443 413.868 342.34 413.973 342.237 414.075C342.211 414.161 342.115 414.283 341.928 414.428C338.808 417.967 333.58 422.023 326.876 426.655C349.908 419.449 377.303 415.222 406.725 415.222C409.577 415.222 412.388 415.277 415.2 415.355C417.794 415.426 420.369 415.484 422.925 415.62C423.13 415.631 423.338 415.653 423.543 415.664C424 415.689 424.455 415.725 424.911 415.752C427.07 415.881 429.227 416.02 431.356 416.193C431.487 416.205 431.621 416.227 431.753 416.237C432.107 416.267 432.459 416.295 432.812 416.326C434.782 416.496 436.741 416.691 438.683 416.9C439.062 416.94 439.452 416.99 439.831 417.032C440.243 417.078 440.656 417.117 441.066 417.164C442.606 417.342 444.137 417.537 445.657 417.738C446.993 417.914 448.309 418.118 449.63 418.312C449.98 418.363 450.34 418.391 450.689 418.444C452.276 418.683 453.848 418.93 455.412 419.195C455.603 419.227 455.795 419.25 455.986 419.283C457.16 419.485 458.312 419.729 459.473 419.945C463.138 420.624 466.769 421.336 470.287 422.152C470.29 422.153 470.284 422.196 470.287 422.196C475.223 423.341 479.974 424.598 484.589 425.992C484.666 425.938 484.74 425.871 484.809 425.816C479.516 422.234 474.929 418.664 471.038 415.266C470.786 415.08 470.591 414.958 470.464 414.825C470.426 414.791 470.413 414.725 470.376 414.692C470.348 414.652 470.296 414.592 470.287 414.56C457.735 402.467 449.806 384.81 449.806 365.123C449.806 342.223 460.512 322.081 476.776 310.257C453.796 311.815 430.161 312.64 406.019 312.64C381.893 312.64 358.229 311.813 335.263 310.257V310.257Z" fill="url(#paint35_radial)"/>
<path d="M335.263 310.257C351.526 322.081 362.232 342.223 362.232 365.123C362.232 384.389 354.634 401.7 342.546 413.766C342.443 413.868 342.34 413.973 342.237 414.075C342.211 414.161 342.115 414.283 341.928 414.428C338.808 417.967 333.58 422.023 326.876 426.655C349.908 419.449 377.303 415.222 406.725 415.222C409.577 415.222 412.388 415.277 415.2 415.355C417.794 415.426 420.369 415.484 422.925 415.62C423.13 415.631 423.338 415.653 423.543 415.664C424 415.689 424.455 415.725 424.911 415.752C427.07 415.881 429.227 416.02 431.356 416.193C431.487 416.205 431.621 416.227 431.753 416.237C432.107 416.267 432.459 416.295 432.812 416.326C434.782 416.496 436.741 416.691 438.683 416.9C439.063 416.94 439.452 416.99 439.831 417.032C440.243 417.078 440.656 417.117 441.066 417.164C442.606 417.342 444.137 417.537 445.657 417.738C446.993 417.914 448.309 418.118 449.63 418.312C449.98 418.363 450.34 418.391 450.689 418.444C452.276 418.683 453.848 418.93 455.412 419.195C455.603 419.227 455.795 419.25 455.986 419.283C457.16 419.485 458.312 419.729 459.473 419.945C463.138 420.624 466.769 421.336 470.287 422.152C470.29 422.153 470.284 422.196 470.287 422.196C475.223 423.341 479.974 424.598 484.589 425.992C484.666 425.938 484.74 425.871 484.809 425.816C479.516 422.234 474.929 418.664 471.038 415.266C470.786 415.08 470.591 414.958 470.464 414.825C470.426 414.791 470.413 414.725 470.376 414.692C470.348 414.652 470.296 414.592 470.287 414.56C457.735 402.467 449.806 384.81 449.806 365.123C449.806 342.223 460.512 322.081 476.776 310.257C453.796 311.815 430.161 312.64 406.019 312.64C381.893 312.64 358.229 311.813 335.263 310.257V310.257Z" stroke="#534C72" stroke-width="0.6"/>
<path d="M406.98 389.717L410.293 385.791C410.905 385.063 412 385.549 412 386.56V386.568C412 386.86 411.899 387.143 411.712 387.353L406.699 392.979C406.31 393.416 405.683 393.416 405.301 392.979L400.288 387.345C400.101 387.135 400 386.852 400 386.56C400 385.557 401.095 385.063 401.707 385.799L405.013 389.717L404.984 377.428C404.984 376.812 405.431 376.311 405.978 376.311H406.014C406.562 376.311 407.001 376.812 407.001 377.428L406.98 389.717Z" fill="black"/>
<path d="M406.98 367.406L410.293 363.481C410.905 362.752 412 363.238 412 364.25V364.258C412 364.549 411.899 364.832 411.712 365.043L406.699 370.668C406.31 371.105 405.683 371.105 405.301 370.668L400.288 365.035C400.101 364.824 400 364.541 400 364.25C400 363.246 401.095 362.752 401.707 363.489L405.013 367.406L404.984 355.117C404.984 354.502 405.431 354 405.978 354H406.014C406.562 354 407.001 354.502 407.001 355.117L406.98 367.406Z" fill="black"/>
<path d="M406.98 343.406L410.293 339.481C410.905 338.752 412 339.238 412 340.25V340.258C412 340.549 411.899 340.832 411.712 341.043L406.699 346.668C406.31 347.105 405.683 347.105 405.301 346.668L400.288 341.035C400.101 340.824 400 340.541 400 340.25C400 339.246 401.095 338.752 401.707 339.489L405.013 343.406L404.984 331.117C404.984 330.502 405.431 330 405.978 330H406.014C406.562 330 407.001 330.502 407.001 331.117L406.98 343.406Z" fill="black"/>
<defs>
<filter id="filter0_f" x="132.936" y="383.048" width="323.101" height="219.993" filterUnits="userSpaceOnUse" color-interpolation-filters="sRGB">
<feFlood flood-opacity="0" result="BackgroundImageFix"/>
<feBlend mode="normal" in="SourceGraphic" in2="BackgroundImageFix" result="shape"/>
<feGaussianBlur stdDeviation="13.6763" result="effect1_foregroundBlur"/>
</filter>
<filter id="filter1_f" x="87.9872" y="40.3778" width="335.622" height="278.088" filterUnits="userSpaceOnUse" color-interpolation-filters="sRGB">
<feFlood flood-opacity="0" result="BackgroundImageFix"/>
<feBlend mode="normal" in="SourceGraphic" in2="BackgroundImageFix" result="shape"/>
<feGaussianBlur stdDeviation="9.47955" result="effect1_foregroundBlur"/>
</filter>
<filter id="filter2_f" x="402.114" y="396.277" width="350.844" height="345.296" filterUnits="userSpaceOnUse" color-interpolation-filters="sRGB">
<feFlood flood-opacity="0" result="BackgroundImageFix"/>
<feBlend mode="normal" in="SourceGraphic" in2="BackgroundImageFix" result="shape"/>
<feGaussianBlur stdDeviation="10.6935" result="effect1_foregroundBlur"/>
</filter>
<radialGradient id="paint0_radial" cx="0" cy="0" r="1" gradientUnits="userSpaceOnUse" gradientTransform="translate(702.541 699.255) rotate(-152.52) scale(564.845 348.964)">
<stop stop-color="#DFF0F9"/>
<stop offset="0.405829" stop-color="#EAF0FD"/>
<stop offset="0.602621" stop-color="#D3D7FD"/>
<stop offset="0.843367" stop-color="#A8CBFF"/>
<stop offset="1" stop-color="#8DB4F9"/>
</radialGradient>
<radialGradient id="paint1_radial" cx="0" cy="0" r="1" gradientUnits="userSpaceOnUse" gradientTransform="translate(438.809 385.087) rotate(-149.682) scale(72.855 60.2792)">
<stop stop-color="#DDAF99"/>
<stop offset="0.829767" stop-color="#C7527C"/>
<stop offset="1" stop-color="#A95482"/>
</radialGradient>
<linearGradient id="paint2_linear" x1="144.659" y1="158.748" x2="690.98" y2="134.738" gradientUnits="userSpaceOnUse">
<stop stop-color="#DFF4FE"/>
<stop offset="0.239322" stop-color="#E1EEFA"/>
<stop offset="0.647874" stop-color="#B4C2F8"/>
<stop offset="1" stop-color="#8EB5FF"/>
</linearGradient>
<radialGradient id="paint3_radial" cx="0" cy="0" r="1" gradientUnits="userSpaceOnUse" gradientTransform="translate(478.442 295.564) rotate(-52.1392) scale(198.651 84.9478)">
<stop stop-color="#645FE9"/>
<stop offset="0.5" stop-color="#B7AFFF"/>
<stop offset="1" stop-color="#EEDAFA" stop-opacity="0"/>
</radialGradient>
<radialGradient id="paint4_radial" cx="0" cy="0" r="1" gradientUnits="userSpaceOnUse" gradientTransform="translate(414.298 1010.85) scale(345.914 364.04)">
<stop stop-color="#FF5555"/>
<stop offset="1" stop-color="#FF5555" stop-opacity="0"/>
</radialGradient>
<radialGradient id="paint5_radial" cx="0" cy="0" r="1" gradientUnits="userSpaceOnUse" gradientTransform="translate(344.202 433.6) rotate(133.341) scale(195.071 52.9747)">
<stop stop-color="#7877ED"/>
<stop offset="1" stop-color="#B9BAFC"/>
</radialGradient>
<radialGradient id="paint6_radial" cx="0" cy="0" r="1" gradientUnits="userSpaceOnUse" gradientTransform="translate(472.776 315.804) scale(535.224 594.099)">
<stop stop-color="#FF5555"/>
<stop offset="1" stop-color="#FF5555" stop-opacity="0"/>
</radialGradient>
<linearGradient id="paint7_linear" x1="380.034" y1="272.898" x2="235.639" y2="105.973" gradientUnits="userSpaceOnUse">
<stop stop-color="white"/>
<stop offset="1" stop-color="#E4F7FD"/>
</linearGradient>
<radialGradient id="paint8_radial" cx="0" cy="0" r="1" gradientUnits="userSpaceOnUse" gradientTransform="translate(405.843 368.455) scale(345.914 364.04)">
<stop stop-color="#FF5555"/>
<stop offset="1" stop-color="#FF5555" stop-opacity="0"/>
</radialGradient>
<linearGradient id="paint9_linear" x1="467.618" y1="448.528" x2="647.856" y2="645.152" gradientUnits="userSpaceOnUse">
<stop stop-color="white"/>
<stop offset="1" stop-color="#DDF1FA"/>
</linearGradient>
<radialGradient id="paint10_radial" cx="0" cy="0" r="1" gradientUnits="userSpaceOnUse" gradientTransform="translate(405.843 368.456) scale(345.914 364.04)">
<stop stop-color="#FF5555"/>
<stop offset="1" stop-color="#FF5555" stop-opacity="0"/>
</radialGradient>
<radialGradient id="paint11_radial" cx="0" cy="0" r="1" gradientUnits="userSpaceOnUse" gradientTransform="translate(401.78 364.682) scale(342.195 337.021)">
<stop stop-color="#534C72"/>
<stop offset="0.5" stop-color="#5B6589"/>
<stop offset="1" stop-color="#637EA1"/>
</radialGradient>
<radialGradient id="paint12_radial" cx="0" cy="0" r="1" gradientUnits="userSpaceOnUse" gradientTransform="translate(401.781 364.681) scale(342.195 337.021)">
<stop stop-color="#534C72"/>
<stop offset="0.5" stop-color="#5B6589"/>
<stop offset="1" stop-color="#637EA1"/>
</radialGradient>
<radialGradient id="paint13_radial" cx="0" cy="0" r="1" gradientUnits="userSpaceOnUse" gradientTransform="translate(401.781 364.68) scale(342.195 337.021)">
<stop stop-color="#534C72"/>
<stop offset="0.5" stop-color="#5B6589"/>
<stop offset="1" stop-color="#637EA1"/>
</radialGradient>
<radialGradient id="paint14_radial" cx="0" cy="0" r="1" gradientUnits="userSpaceOnUse" gradientTransform="translate(401.78 364.682) scale(342.195 337.021)">
<stop stop-color="#534C72"/>
<stop offset="0.5" stop-color="#5B6589"/>
<stop offset="1" stop-color="#637EA1"/>
</radialGradient>
<radialGradient id="paint15_radial" cx="0" cy="0" r="1" gradientUnits="userSpaceOnUse" gradientTransform="translate(401.78 364.681) scale(342.195 337.021)">
<stop stop-color="#534C72"/>
<stop offset="0.5" stop-color="#5B6589"/>
<stop offset="1" stop-color="#637EA1"/>
</radialGradient>
<radialGradient id="paint16_radial" cx="0" cy="0" r="1" gradientUnits="userSpaceOnUse" gradientTransform="translate(401.781 364.681) scale(342.195 337.021)">
<stop stop-color="#534C72"/>
<stop offset="0.5" stop-color="#5B6589"/>
<stop offset="1" stop-color="#637EA1"/>
</radialGradient>
<radialGradient id="paint17_radial" cx="0" cy="0" r="1" gradientUnits="userSpaceOnUse" gradientTransform="translate(401.78 364.681) scale(342.195 337.021)">
<stop stop-color="#534C72"/>
<stop offset="0.5" stop-color="#5B6589"/>
<stop offset="1" stop-color="#637EA1"/>
</radialGradient>
<radialGradient id="paint18_radial" cx="0" cy="0" r="1" gradientUnits="userSpaceOnUse" gradientTransform="translate(401.781 364.68) scale(342.195 337.021)">
<stop stop-color="#534C72"/>
<stop offset="0.5" stop-color="#5B6589"/>
<stop offset="1" stop-color="#637EA1"/>
</radialGradient>
<radialGradient id="paint19_radial" cx="0" cy="0" r="1" gradientUnits="userSpaceOnUse" gradientTransform="translate(401.781 364.681) scale(342.195 337.021)">
<stop stop-color="#534C72"/>
<stop offset="0.5" stop-color="#5B6589"/>
<stop offset="1" stop-color="#637EA1"/>
</radialGradient>
<radialGradient id="paint20_radial" cx="0" cy="0" r="1" gradientUnits="userSpaceOnUse" gradientTransform="translate(401.781 364.681) scale(342.195 337.021)">
<stop stop-color="#534C72"/>
<stop offset="0.5" stop-color="#5B6589"/>
<stop offset="1" stop-color="#637EA1"/>
</radialGradient>
<radialGradient id="paint21_radial" cx="0" cy="0" r="1" gradientUnits="userSpaceOnUse" gradientTransform="translate(401.78 364.681) scale(342.195 337.021)">
<stop stop-color="#534C72"/>
<stop offset="0.342854" stop-color="#554D73" stop-opacity="0.635294"/>
<stop offset="1" stop-color="#637EA1"/>
</radialGradient>
<radialGradient id="paint22_radial" cx="0" cy="0" r="1" gradientUnits="userSpaceOnUse" gradientTransform="translate(401.781 364.681) scale(342.195 337.021)">
<stop stop-color="#534C72"/>
<stop offset="0.5" stop-color="#5B6589"/>
<stop offset="1" stop-color="#637EA1"/>
</radialGradient>
<radialGradient id="paint23_radial" cx="0" cy="0" r="1" gradientUnits="userSpaceOnUse" gradientTransform="translate(401.781 364.681) scale(342.195 337.021)">
<stop stop-color="#534C72"/>
<stop offset="0.5" stop-color="#5B6589"/>
<stop offset="1" stop-color="#637EA1"/>
</radialGradient>
<radialGradient id="paint24_radial" cx="0" cy="0" r="1" gradientUnits="userSpaceOnUse" gradientTransform="translate(401.78 364.681) scale(342.195 337.022)">
<stop stop-color="#534C72"/>
<stop offset="0.5" stop-color="#5B6589"/>
<stop offset="1" stop-color="#637EA1"/>
</radialGradient>
<radialGradient id="paint25_radial" cx="0" cy="0" r="1" gradientUnits="userSpaceOnUse" gradientTransform="translate(401.781 364.681) scale(342.195 337.021)">
<stop stop-color="#534C72"/>
<stop offset="0.5" stop-color="#5B6589"/>
<stop offset="1" stop-color="#637EA1"/>
</radialGradient>
<radialGradient id="paint26_radial" cx="0" cy="0" r="1" gradientUnits="userSpaceOnUse" gradientTransform="translate(401.781 364.68) scale(342.195 337.021)">
<stop stop-color="#534C72"/>
<stop offset="0.5" stop-color="#5B6589"/>
<stop offset="1" stop-color="#637EA1"/>
</radialGradient>
<radialGradient id="paint27_radial" cx="0" cy="0" r="1" gradientUnits="userSpaceOnUse" gradientTransform="translate(401.781 364.681) scale(342.195 337.021)">
<stop stop-color="#534C72"/>
<stop offset="0.5" stop-color="#5B6589"/>
<stop offset="1" stop-color="#637EA1"/>
</radialGradient>
<radialGradient id="paint28_radial" cx="0" cy="0" r="1" gradientUnits="userSpaceOnUse" gradientTransform="translate(401.781 364.682) scale(342.195 337.021)">
<stop stop-color="#534C72"/>
<stop offset="0.5" stop-color="#5B6589"/>
<stop offset="1" stop-color="#637EA1"/>
</radialGradient>
<radialGradient id="paint29_radial" cx="0" cy="0" r="1" gradientUnits="userSpaceOnUse" gradientTransform="translate(401.781 364.68) scale(342.195 337.021)">
<stop stop-color="#534C72"/>
<stop offset="0.5" stop-color="#5B6589"/>
<stop offset="1" stop-color="#637EA1"/>
</radialGradient>
<radialGradient id="paint30_radial" cx="0" cy="0" r="1" gradientUnits="userSpaceOnUse" gradientTransform="translate(401.78 364.681) scale(342.195 337.022)">
<stop stop-color="#534C72"/>
<stop offset="0.5" stop-color="#5B6589"/>
<stop offset="1" stop-color="#637EA1"/>
</radialGradient>
<radialGradient id="paint31_radial" cx="0" cy="0" r="1" gradientUnits="userSpaceOnUse" gradientTransform="translate(401.781 364.681) scale(342.195 337.021)">
<stop stop-color="#534C72"/>
<stop offset="0.5" stop-color="#5B6589"/>
<stop offset="1" stop-color="#637EA1"/>
</radialGradient>
<radialGradient id="paint32_radial" cx="0" cy="0" r="1" gradientUnits="userSpaceOnUse" gradientTransform="translate(401.781 364.68) scale(342.195 337.022)">
<stop stop-color="#534C72"/>
<stop offset="0.5" stop-color="#5B6589"/>
<stop offset="1" stop-color="#637EA1"/>
</radialGradient>
<radialGradient id="paint33_radial" cx="0" cy="0" r="1" gradientUnits="userSpaceOnUse" gradientTransform="translate(401.781 364.681) scale(342.194 337.021)">
<stop stop-color="#534C72"/>
<stop offset="0.5" stop-color="#5B6589"/>
<stop offset="1" stop-color="#637EA1"/>
</radialGradient>
<radialGradient id="paint34_radial" cx="0" cy="0" r="1" gradientUnits="userSpaceOnUse" gradientTransform="translate(401.781 364.682) scale(342.195 337.021)">
<stop stop-color="#534C72"/>
<stop offset="0.5" stop-color="#5B6589"/>
<stop offset="1" stop-color="#637EA1"/>
</radialGradient>
<radialGradient id="paint35_radial" cx="0" cy="0" r="1" gradientUnits="userSpaceOnUse" gradientTransform="translate(438.809 385.088) rotate(-149.682) scale(72.855 60.2792)">
<stop stop-color="#DDAF99"/>
<stop offset="0.829767" stop-color="#C7527C"/>
<stop offset="1" stop-color="#A95482"/>
</radialGradient>
</defs>
</svg>
